<mxfile host="app.diagrams.net" modified="2023-09-08T13:38:47.567Z" agent="Mozilla/5.0 (Windows NT 10.0; Win64; x64) AppleWebKit/537.36 (KHTML, like Gecko) Chrome/116.0.0.0 Safari/537.36" version="21.6.8" etag="SJ3dhKrGBDxtPSQ3ZrBw" type="github">
  <diagram name="Page-1" id="jNVLWGgmDvb4tQo9tsUm">
    <mxGraphModel>
      <root>
        <mxCell id="0" />
        <mxCell id="1" parent="0" />
      </root>
    </mxGraphModel>
  </diagram>
</mxfile>
